<svg xmlns="http://www.w3.org/2000/svg" viewBox="0 0 643.15 117.63"><defs><style>.cls-1{fill:#3b3b3a;}.cls-1,.cls-2,.cls-3{fill-rule:evenodd;}.cls-2{fill:#d62e3a;}.cls-3,.cls-4{fill:#fff;}</style></defs><title>TJ-Negro</title><g id="Layer_2" data-name="Layer 2"><g id="Capa_1" data-name="Capa 1"><path class="cls-1" d="M19.64,89.84V85.7a16.39,16.39,0,0,0,4.17-1.16,5,5,0,0,0,2.29-2A8.26,8.26,0,0,0,27,79.14q.19-2,.19-5.05V11.54H22.15a14.93,14.93,0,0,0-5.77.88,9,9,0,0,0-3.48,2.76,16.91,16.91,0,0,0-2.54,5.05q-1.07,3.17-1.76,6H0V4.2H73.85v22H65.25Q64.06,22,63.37,20a18.28,18.28,0,0,0-1.54-3.42A12.27,12.27,0,0,0,60,14.18a8.44,8.44,0,0,0-2-1.51,9.08,9.08,0,0,0-2.67-.85,24.85,24.85,0,0,0-4.17-.28H46.68V74.09q0,3.33.19,5.05a9,9,0,0,0,.69,2.79,5.38,5.38,0,0,0,1.22,1.72,6.84,6.84,0,0,0,2,1.19,14.75,14.75,0,0,0,3.48.85v4.14Z"/><path class="cls-1" d="M95.34,90.85a36.23,36.23,0,0,1-15.9-3.23A23,23,0,0,1,69,77.26q-3.76-7.12-3.76-18.1a41.21,41.21,0,0,1,2.32-14.56A27.37,27.37,0,0,1,74,34.44a25.6,25.6,0,0,1,9.88-5.93A39.16,39.16,0,0,1,96.34,26.6q15.18,0,22.9,8T127,58q0,10.91-3.83,18.29a24.58,24.58,0,0,1-10.92,10.95,37.1,37.1,0,0,1-16.88,3.58Zm-11-33.06h0q0,13.3,3,19.92t9,6.62a8.9,8.9,0,0,0,5.55-1.7,11.66,11.66,0,0,0,3.58-4.89A29.35,29.35,0,0,0,107.32,70,81.29,81.29,0,0,0,107.88,60q0-13.49-3-20.17t-8.82-6.68a9,9,0,0,0-6.84,2.7q-2.57,2.7-3.77,8.09A66.1,66.1,0,0,0,84.29,57.78Z"/><path class="cls-1" d="M193.07,71.52q0,4.77.16,7A11.08,11.08,0,0,0,194,82a4.89,4.89,0,0,0,1.82,2.16,12.59,12.59,0,0,0,4.2,1.47v4.21l-17.07.56h-7.59l.56-9-.94-.06a35.76,35.76,0,0,1-9.51,7.06,21.49,21.49,0,0,1-9.57,2.48q-11.42,0-17.1-7.84T133.1,59.41q0-10.66,3.45-18a24,24,0,0,1,10.26-11.07,33.47,33.47,0,0,1,16.41-3.76,42.31,42.31,0,0,1,5.43.35,46.85,46.85,0,0,1,6.3,1.35V22.59q0-6.71-.19-9.5A14.6,14.6,0,0,0,174,8.81a4.94,4.94,0,0,0-1.79-2.29,12.74,12.74,0,0,0-4.33-1.44V.88L185.23,0h7.84V71.52ZM174.94,48.18h0q0-7.65-2.57-11.36t-7.91-3.7a9.12,9.12,0,0,0-6.68,2.79A17.61,17.61,0,0,0,153.58,44a48.66,48.66,0,0,0-1.41,12.48q0,12.36,2.7,18.45T163.27,81a11.73,11.73,0,0,0,5.37-1.35,11.78,11.78,0,0,0,6.3-10.57Z"/><path class="cls-1" d="M232.18,90.85a36.24,36.24,0,0,1-15.9-3.23,23.05,23.05,0,0,1-10.45-10.35q-3.76-7.12-3.76-18.1a41.19,41.19,0,0,1,2.32-14.56,27.34,27.34,0,0,1,6.46-10.16,25.59,25.59,0,0,1,9.88-5.93,39.18,39.18,0,0,1,12.45-1.92q15.18,0,22.9,8T263.8,58q0,10.91-3.83,18.29a24.57,24.57,0,0,1-10.92,10.95,37.1,37.1,0,0,1-16.88,3.58Zm-11-33.06h0q0,13.3,3,19.92t9,6.62a8.91,8.91,0,0,0,5.55-1.7,11.65,11.65,0,0,0,3.57-4.89A29.13,29.13,0,0,0,244.16,70,81.16,81.16,0,0,0,244.72,60q0-13.49-3-20.17t-8.81-6.68a9,9,0,0,0-6.84,2.7q-2.57,2.7-3.76,8.09A66.2,66.2,0,0,0,221.13,57.78Z"/><path class="cls-1" d="M292.61,82.88a47.33,47.33,0,0,1-1,11,20.47,20.47,0,0,1-3.48,7.47,27.21,27.21,0,0,1-7.72,7,59.62,59.62,0,0,1-14.05,6.15l-3.14-7.71a26,26,0,0,0,5.68-3.2,9.82,9.82,0,0,0,2.7-3.23A14.63,14.63,0,0,0,272.79,96a57,57,0,0,0,.38-7.56V20q0-2.95-.16-5a8.47,8.47,0,0,0-.81-3.26,5.09,5.09,0,0,0-2-2,15.56,15.56,0,0,0-3.74-1.41V4.2h32.94V8.34a13.42,13.42,0,0,0-3.86,1.51,5.38,5.38,0,0,0-1.82,1.95,9,9,0,0,0-.85,2.89,41.35,41.35,0,0,0-.25,5.34Z"/><path class="cls-1" d="M300.82,27.6h24.41V62.42a90.5,90.5,0,0,0,.38,9.41A14.92,14.92,0,0,0,327,77.2a7.18,7.18,0,0,0,2.6,2.88,7.6,7.6,0,0,0,3.92.91,10.05,10.05,0,0,0,4.89-1.44,13,13,0,0,0,4.36-4A9.64,9.64,0,0,0,344.61,70V45.74q0-4.58-.19-6.81a11.81,11.81,0,0,0-.72-3.48,5.08,5.08,0,0,0-1.67-2.1,12.09,12.09,0,0,0-3.7-1.6V27.6H362.8V71.52q0,4.77.16,7a11.08,11.08,0,0,0,.72,3.51,4.89,4.89,0,0,0,1.82,2.16,12.63,12.63,0,0,0,4.2,1.47v4.21l-17.07.56H345l.56-9-.75-.19a42.9,42.9,0,0,1-10.41,7.53,21.67,21.67,0,0,1-9.22,2.14q-6.65,0-10.64-2.48a13.87,13.87,0,0,1-5.74-7.28,36.66,36.66,0,0,1-1.76-12.39v-23q0-3.51-.09-5.39a23.23,23.23,0,0,0-.28-2.92,9.3,9.3,0,0,0-.53-1.88,5.51,5.51,0,0,0-.94-1.54,5.82,5.82,0,0,0-1.63-1.25,11.93,11.93,0,0,0-2.79-1Z"/><path class="cls-1" d="M394.94,84.89a52.16,52.16,0,0,1-1.28,12.51,23.87,23.87,0,0,1-4.33,9,26.33,26.33,0,0,1-8.5,6.81A53.72,53.72,0,0,1,370,117.63l-3-7.34a21.18,21.18,0,0,0,6.15-3.45,10.08,10.08,0,0,0,2.82-4.48,25.44,25.44,0,0,0,.88-7.5V42.6a34.84,34.84,0,0,0-.28-5,7.08,7.08,0,0,0-1.07-3,5,5,0,0,0-2.13-1.72,17.64,17.64,0,0,0-3.48-1V27.6l17.25-.5h7.84V84.89Zm-.5-82.31h0V17.94H377.24V2.57Z"/><path class="cls-1" d="M399.62,27.6H424V62.42a89.91,89.91,0,0,0,.38,9.41,14.86,14.86,0,0,0,1.44,5.36,7.18,7.18,0,0,0,2.6,2.88,7.6,7.6,0,0,0,3.92.91,10,10,0,0,0,4.89-1.44,12.94,12.94,0,0,0,4.36-4A9.64,9.64,0,0,0,443.41,70V45.74q0-4.58-.19-6.81a11.72,11.72,0,0,0-.72-3.48,5.09,5.09,0,0,0-1.66-2.1,12.12,12.12,0,0,0-3.7-1.6V27.6H461.6V71.52q0,4.77.16,7a11,11,0,0,0,.72,3.51,4.88,4.88,0,0,0,1.82,2.16,12.58,12.58,0,0,0,4.2,1.47v4.21l-17.07.56h-7.59l.56-9-.75-.19a42.92,42.92,0,0,1-10.41,7.53A21.68,21.68,0,0,1,424,90.85q-6.65,0-10.64-2.48a13.87,13.87,0,0,1-5.74-7.28,36.68,36.68,0,0,1-1.75-12.39v-23q0-3.51-.09-5.39a24.47,24.47,0,0,0-.28-2.92,9.46,9.46,0,0,0-.53-1.88A5.56,5.56,0,0,0,404,34a5.86,5.86,0,0,0-1.63-1.25,12,12,0,0,0-2.79-1Z"/><path class="cls-1" d="M503.3,92.66a90.22,90.22,0,0,1-7.69,14.27,27.06,27.06,0,0,1-7.78,7.75,19.45,19.45,0,0,1-10.38,2.57,31.21,31.21,0,0,1-8.78-1.19V101.7h7a8.53,8.53,0,0,0,2,4,5,5,0,0,0,3.42,1.1,7.4,7.4,0,0,0,4.3-1.32,18.65,18.65,0,0,0,4.33-4.92,98.52,98.52,0,0,0,5.93-10.76h-3.58L475.76,42.73A50.88,50.88,0,0,0,473,35.92a9,9,0,0,0-2.32-2.82,7.64,7.64,0,0,0-3.17-1.35V27.6h31.31v4.14a9.78,9.78,0,0,0-4.33,1.69,4.11,4.11,0,0,0-1.38,3.39,25.92,25.92,0,0,0,1.63,7.84l9,27.42,10-24a45.15,45.15,0,0,0,1.88-5.3,16.88,16.88,0,0,0,.63-4.49,6.39,6.39,0,0,0-1.5-4.36,6.87,6.87,0,0,0-4.27-2.16V27.6h24.41v4.2a9.72,9.72,0,0,0-2.92,1.38,10,10,0,0,0-2.07,2.13,32.82,32.82,0,0,0-2.35,3.92q-1.38,2.61-3.77,7.87Z"/><path class="cls-2" d="M628.57,48H535.42a5.74,5.74,0,0,0-.71.42,7.88,7.88,0,0,0-1.63,1.67,25.63,25.63,0,0,0-1.85,3.08q-1.08,2-3,6.18L514.21,90.66H628.57a15.68,15.68,0,0,0,8.35-1.95,10.9,10.9,0,0,0,4.5-5.71,28.69,28.69,0,0,0,1.38-9.73v-18a40.7,40.7,0,0,1,.34-7.29Z"/><path class="cls-3" d="M557.85,77.32a6,6,0,0,1-2.66.61,4.55,4.55,0,0,1-3.13-1.06,6,6,0,0,1-1.72-3,18.53,18.53,0,0,1-.54-4.79,25.05,25.05,0,0,1,.36-4.7,10.1,10.1,0,0,1,1-3,3.86,3.86,0,0,1,1.43-1.55,3.48,3.48,0,0,1,1.71-.45,2.39,2.39,0,0,1,2.09,1,8.23,8.23,0,0,1,1.09,3.33h4.81V57.93a23.8,23.8,0,0,0-3.56-.76,27.7,27.7,0,0,0-3.92-.28,13.75,13.75,0,0,0-6.5,1.49,10.14,10.14,0,0,0-4.35,4.39,14.65,14.65,0,0,0-1.52,6.88q0,5.9,2.77,9t8,3.09a11.56,11.56,0,0,0,4.84-1,16.48,16.48,0,0,0,4.6-3.34l-1.87-2.26A12.94,12.94,0,0,1,557.85,77.32Z"/><rect class="cls-4" x="531.19" y="74.02" width="6.53" height="7.33"/><path class="cls-3" d="M577.45,56.89a15.16,15.16,0,0,0-4.81.74,10,10,0,0,0-3.82,2.29,10.59,10.59,0,0,0-2.5,3.93,15.9,15.9,0,0,0-.9,5.63,14.94,14.94,0,0,0,1.46,7,8.94,8.94,0,0,0,4,4,14,14,0,0,0,6.15,1.25,14.36,14.36,0,0,0,6.53-1.38,9.53,9.53,0,0,0,4.22-4.24A15.24,15.24,0,0,0,589.29,69q0-6-3-9.06t-8.86-3.09Zm4.25,16.8h0a11.26,11.26,0,0,1-.74,3,4.49,4.49,0,0,1-1.38,1.89,3.46,3.46,0,0,1-2.15.65,3.72,3.72,0,0,1-3.48-2.56,19.62,19.62,0,0,1-1.15-7.7,25.65,25.65,0,0,1,.46-5.36,6.53,6.53,0,0,1,1.46-3.13,3.49,3.49,0,0,1,2.65-1q2.26,0,3.41,2.58a20.07,20.07,0,0,1,1.16,7.8A31.26,31.26,0,0,1,581.69,73.69Z"/><path class="cls-3" d="M630.92,78.74a2.66,2.66,0,0,1-.4-.91,7.25,7.25,0,0,1-.18-1.49c0-.62,0-1.29,0-2V65.48a16.91,16.91,0,0,0-.38-3.84,6.83,6.83,0,0,0-1.2-2.67,4.89,4.89,0,0,0-2.1-1.58,8.69,8.69,0,0,0-3.22-.51,8.19,8.19,0,0,0-3.77.92,20,20,0,0,0-4.26,3.2A6.61,6.61,0,0,0,614,58.7a5.37,5.37,0,0,0-2-1.35,8.85,8.85,0,0,0-6.6.39,16.8,16.8,0,0,0-4,2.91l-.29-.07.36-3.49h-3.06l-6.65.19v1.65a4.74,4.74,0,0,1,1.64.57,2,2,0,0,1,.7.85,4.15,4.15,0,0,1,.29,1.38q.06.86.06,2.66v10a21.74,21.74,0,0,1-.16,3.18,2.81,2.81,0,0,1-.61,1.38,3.27,3.27,0,0,1-1.61.82v1.6h11.62v-1.6a2.33,2.33,0,0,1-2.1-2.22,25.5,25.5,0,0,1-.13-3.19V64.94a3.77,3.77,0,0,1,.67-2.14,4.91,4.91,0,0,1,1.65-1.55,3.84,3.84,0,0,1,1.88-.56,3.22,3.22,0,0,1,1.13.17,2.23,2.23,0,0,1,.78.48,3,3,0,0,1,.58.82,5,5,0,0,1,.4,1.19,11.09,11.09,0,0,1,.21,1.78q.06,1.11.06,2.71v6.5a23.29,23.29,0,0,1-.15,3.21,2.86,2.86,0,0,1-.57,1.39,2.81,2.81,0,0,1-1.54.78v1.6h11.55v-1.6a3.54,3.54,0,0,1-1.32-.59,2.06,2.06,0,0,1-.62-.89,5.26,5.26,0,0,1-.25-1.41q-.06-.87-.06-2.52V66.43a18.53,18.53,0,0,1,.08-2.06,4.1,4.1,0,0,1,.32-1.14,3.25,3.25,0,0,1,.62-.92,6.68,6.68,0,0,1,.93-.81,4.4,4.4,0,0,1,1.08-.6,3.39,3.39,0,0,1,1.16-.2,2.88,2.88,0,0,1,1.49.34,2.76,2.76,0,0,1,1,1.12,6,6,0,0,1,.56,2.15,35.39,35.39,0,0,1,.15,3.56v6.5a21.49,21.49,0,0,1-.16,3.2,3.07,3.07,0,0,1-.57,1.41,2.71,2.71,0,0,1-1.5.78v1.6h11.69v-1.6a5.11,5.11,0,0,1-1.11-.41A2,2,0,0,1,630.92,78.74Z"/></g></g></svg>